<svg width="165" height="26" viewBox="0 0 165 26" fill="none" xmlns="http://www.w3.org/2000/svg">
<path d="M8.45 0.854148V9.53415H14.54V0.854148H22.135V25.0042H14.54V14.8541H8.45V25.0042H0.855V0.854148H8.45ZM39.3854 0.854148C39.992 0.854148 40.5287 1.02915 40.9954 1.37915C41.462 1.72915 41.777 2.20748 41.9404 2.81415L48.2054 25.0042H40.4704L39.2454 19.7892H32.6304L31.4054 25.0042H23.6704L29.9354 2.81415C30.0987 2.20748 30.4137 1.72915 30.8804 1.37915C31.347 1.02915 31.8837 0.854148 32.4904 0.854148H39.3854ZM35.0454 9.28915L33.8554 14.4691H38.0204L36.8304 9.28915C36.737 8.84582 36.6554 8.39082 36.5854 7.92415C36.5154 7.43415 36.457 6.96748 36.4104 6.52415H35.4654C35.4187 6.96748 35.3604 7.43415 35.2904 7.92415C35.2204 8.39082 35.1387 8.84582 35.0454 9.28915ZM71.922 0.854148V22.3792C71.922 24.1292 71.047 25.0042 69.297 25.0042H66.392C65.5986 25.0042 65.0036 24.8175 64.607 24.4442C64.2336 24.0708 63.8486 23.5225 63.452 22.7992L58.202 14.5041C57.8753 13.8975 57.572 13.2442 57.292 12.5442C57.0353 11.8208 56.802 11.0975 56.592 10.3741H56.347C56.4636 11.0975 56.5453 11.8441 56.592 12.6142C56.662 13.3608 56.697 14.0841 56.697 14.7841V25.0042H49.697V3.47915C49.697 1.72915 50.572 0.854148 52.322 0.854148H55.227C56.0203 0.854148 56.6036 1.04082 56.977 1.41415C57.3503 1.78748 57.747 2.33582 58.167 3.05915L63.207 10.9691C63.5336 11.5525 63.8486 12.1941 64.152 12.8941C64.4786 13.5941 64.782 14.3291 65.062 15.0991H65.307C65.2136 14.3525 65.132 13.6175 65.062 12.8941C65.0153 12.1708 64.992 11.4475 64.992 10.7241L64.957 0.854148H71.922ZM85.8618 0.504149C87.9385 0.504149 89.6885 0.702482 91.1118 1.09915C92.5585 1.47248 93.7251 2.12582 94.6118 3.05915C95.4985 3.96915 96.1401 5.22915 96.5368 6.83915C96.9335 8.44915 97.1318 10.4791 97.1318 12.9291C97.1318 15.3791 96.9335 17.4092 96.5368 19.0192C96.1401 20.6292 95.4985 21.9008 94.6118 22.8342C93.7251 23.7442 92.5585 24.3975 91.1118 24.7942C89.6885 25.1675 87.9385 25.3542 85.8618 25.3542C83.8551 25.3542 82.0118 25.3192 80.3318 25.2492C78.6518 25.1792 77.0535 25.0975 75.5368 25.0042V0.854148C77.0768 0.760816 78.6635 0.67915 80.2968 0.609149C81.9535 0.539149 83.8085 0.504149 85.8618 0.504149ZM85.8618 5.99915C85.3718 5.99915 84.8935 5.99915 84.4268 5.99915C83.9835 5.99915 83.5518 5.99915 83.1318 5.99915V19.8242C83.9718 19.8475 84.8818 19.8592 85.8618 19.8592C86.7251 19.8592 87.3901 19.6725 87.8568 19.2992C88.3235 18.9258 88.6501 18.2375 88.8368 17.2341C89.0235 16.2308 89.1168 14.7958 89.1168 12.9291C89.1168 11.0625 89.0235 9.62748 88.8368 8.62415C88.6501 7.62082 88.3235 6.93248 87.8568 6.55915C87.3901 6.18582 86.7251 5.99915 85.8618 5.99915ZM118.248 19.6842V25.0042H99.0677V19.6842L109.498 6.17415H99.4177V0.854148H117.898V6.17415L107.468 19.6842H118.248ZM126.559 0.71415C127.959 0.71415 129.394 0.725817 130.864 0.74915C132.357 0.74915 133.816 0.784149 135.239 0.854148C136.662 0.900816 137.957 1.00582 139.124 1.16915L138.774 6.52415H129.919C129.476 6.52415 129.126 6.64082 128.869 6.87415C128.612 7.10748 128.484 7.41082 128.484 7.78415V10.1291H137.514V15.1691H128.484V18.0741C128.484 18.4475 128.612 18.7508 128.869 18.9842C129.126 19.2175 129.476 19.3342 129.919 19.3342H138.774L139.124 24.6892C137.957 24.8292 136.662 24.9342 135.239 25.0042C133.816 25.0742 132.357 25.1092 130.864 25.1092C129.394 25.1325 127.959 25.1442 126.559 25.1442C124.902 25.1442 123.537 24.6425 122.464 23.6392C121.414 22.6125 120.889 21.2825 120.889 19.6491V6.20915C120.889 4.57582 121.414 3.25748 122.464 2.25415C123.537 1.22748 124.902 0.71415 126.559 0.71415ZM164.139 0.854148V22.3792C164.139 24.1292 163.264 25.0042 161.514 25.0042H158.609C157.815 25.0042 157.22 24.8175 156.824 24.4442C156.45 24.0708 156.065 23.5225 155.669 22.7992L150.419 14.5041C150.092 13.8975 149.789 13.2442 149.509 12.5442C149.252 11.8208 149.019 11.0975 148.809 10.3741H148.564C148.68 11.0975 148.762 11.8441 148.809 12.6142C148.879 13.3608 148.914 14.0841 148.914 14.7841V25.0042H141.914V3.47915C141.914 1.72915 142.789 0.854148 144.539 0.854148H147.444C148.237 0.854148 148.82 1.04082 149.194 1.41415C149.567 1.78748 149.964 2.33582 150.384 3.05915L155.424 10.9691C155.75 11.5525 156.065 12.1941 156.369 12.8941C156.695 13.5941 156.999 14.3291 157.279 15.0991H157.524C157.43 14.3525 157.349 13.6175 157.279 12.8941C157.232 12.1708 157.209 11.4475 157.209 10.7241L157.174 0.854148H164.139Z" fill="#16133D"/>
</svg>
