<svg width="165" height="26" viewBox="0 0 165 26" fill="none" xmlns="http://www.w3.org/2000/svg">
<path d="M8.45 0.782615V9.46262H14.54V0.782615H22.135V24.9326H14.54V14.7826H8.45V24.9326H0.855V0.782615H8.45ZM39.3854 0.782615C39.992 0.782615 40.5287 0.957616 40.9954 1.30762C41.462 1.65762 41.777 2.13595 41.9404 2.74262L48.2054 24.9326H40.4704L39.2454 19.7176H32.6304L31.4054 24.9326H23.6704L29.9354 2.74262C30.0987 2.13595 30.4137 1.65762 30.8804 1.30762C31.347 0.957616 31.8837 0.782615 32.4904 0.782615H39.3854ZM35.0454 9.21762L33.8554 14.3976H38.0204L36.8304 9.21762C36.737 8.77428 36.6554 8.31928 36.5854 7.85262C36.5154 7.36262 36.457 6.89595 36.4104 6.45262H35.4654C35.4187 6.89595 35.3604 7.36262 35.2904 7.85262C35.2204 8.31928 35.1387 8.77428 35.0454 9.21762ZM71.922 0.782615V22.3076C71.922 24.0576 71.047 24.9326 69.297 24.9326H66.392C65.5986 24.9326 65.0036 24.746 64.607 24.3726C64.2336 23.9993 63.8486 23.451 63.452 22.7276L58.202 14.4326C57.8753 13.826 57.572 13.1726 57.292 12.4726C57.0353 11.7493 56.802 11.0259 56.592 10.3026H56.347C56.4636 11.0259 56.5453 11.7726 56.592 12.5426C56.662 13.2893 56.697 14.0126 56.697 14.7126V24.9326H49.697V3.40762C49.697 1.65762 50.572 0.782615 52.322 0.782615H55.227C56.0203 0.782615 56.6036 0.969282 56.977 1.34262C57.3503 1.71595 57.747 2.26428 58.167 2.98762L63.207 10.8976C63.5336 11.4809 63.8486 12.1226 64.152 12.8226C64.4786 13.5226 64.782 14.2576 65.062 15.0276H65.307C65.2136 14.2809 65.132 13.5459 65.062 12.8226C65.0153 12.0993 64.992 11.376 64.992 10.6526L64.957 0.782615H71.922ZM85.8618 0.432616C87.9385 0.432616 89.6885 0.630949 91.1118 1.02762C92.5585 1.40095 93.7251 2.05428 94.6118 2.98762C95.4985 3.89762 96.1401 5.15762 96.5368 6.76762C96.9335 8.37762 97.1318 10.4076 97.1318 12.8576C97.1318 15.3076 96.9335 17.3376 96.5368 18.9476C96.1401 20.5576 95.4985 21.8293 94.6118 22.7626C93.7251 23.6726 92.5585 24.326 91.1118 24.7226C89.6885 25.096 87.9385 25.2826 85.8618 25.2826C83.8551 25.2826 82.0118 25.2476 80.3318 25.1776C78.6518 25.1076 77.0535 25.026 75.5368 24.9326V0.782615C77.0768 0.689283 78.6635 0.607617 80.2968 0.537616C81.9535 0.467616 83.8085 0.432616 85.8618 0.432616ZM85.8618 5.92762C85.3718 5.92762 84.8935 5.92762 84.4268 5.92762C83.9835 5.92762 83.5518 5.92762 83.1318 5.92762V19.7526C83.9718 19.776 84.8818 19.7876 85.8618 19.7876C86.7251 19.7876 87.3901 19.601 87.8568 19.2276C88.3235 18.8543 88.6501 18.166 88.8368 17.1626C89.0235 16.1593 89.1168 14.7243 89.1168 12.8576C89.1168 10.9909 89.0235 9.55595 88.8368 8.55262C88.6501 7.54928 88.3235 6.86095 87.8568 6.48762C87.3901 6.11428 86.7251 5.92762 85.8618 5.92762ZM118.248 19.6126V24.9326H99.0677V19.6126L109.498 6.10262H99.4177V0.782615H117.898V6.10262L107.468 19.6126H118.248ZM126.559 0.642617C127.959 0.642617 129.394 0.654284 130.864 0.677617C132.357 0.677617 133.816 0.712616 135.239 0.782615C136.662 0.829283 137.957 0.934283 139.124 1.09762L138.774 6.45262H129.919C129.476 6.45262 129.126 6.56928 128.869 6.80262C128.612 7.03595 128.484 7.33928 128.484 7.71262V10.0576H137.514V15.0976H128.484V18.0026C128.484 18.376 128.612 18.6793 128.869 18.9126C129.126 19.146 129.476 19.2626 129.919 19.2626H138.774L139.124 24.6176C137.957 24.7576 136.662 24.8626 135.239 24.9326C133.816 25.0026 132.357 25.0376 130.864 25.0376C129.394 25.061 127.959 25.0726 126.559 25.0726C124.902 25.0726 123.537 24.571 122.464 23.5676C121.414 22.541 120.889 21.211 120.889 19.5776V6.13762C120.889 4.50428 121.414 3.18595 122.464 2.18262C123.537 1.15595 124.902 0.642617 126.559 0.642617ZM164.139 0.782615V22.3076C164.139 24.0576 163.264 24.9326 161.514 24.9326H158.609C157.815 24.9326 157.22 24.746 156.824 24.3726C156.45 23.9993 156.065 23.451 155.669 22.7276L150.419 14.4326C150.092 13.826 149.789 13.1726 149.509 12.4726C149.252 11.7493 149.019 11.0259 148.809 10.3026H148.564C148.68 11.0259 148.762 11.7726 148.809 12.5426C148.879 13.2893 148.914 14.0126 148.914 14.7126V24.9326H141.914V3.40762C141.914 1.65762 142.789 0.782615 144.539 0.782615H147.444C148.237 0.782615 148.82 0.969282 149.194 1.34262C149.567 1.71595 149.964 2.26428 150.384 2.98762L155.424 10.8976C155.75 11.4809 156.065 12.1226 156.369 12.8226C156.695 13.5226 156.999 14.2576 157.279 15.0276H157.524C157.43 14.2809 157.349 13.5459 157.279 12.8226C157.232 12.0993 157.209 11.376 157.209 10.6526L157.174 0.782615H164.139Z" fill="white"/>
</svg>
