<svg width="0" height="0" class="hidden">
  <symbol viewBox="0 0 25 37" fill="none" xmlns="http://www.w3.org/2000/svg" id="app">
    <path d="M20.83 1.317c1.417 0 2.565 1.074 2.565 2.399V33.7c0 1.325-1.148 2.4-2.564 2.4H3.205C1.789 36.1.64 35.024.64 33.7V3.716c0-1.325 1.148-2.4 2.564-2.4H20.83z" fill="#D1E7FF"></path>
    <path d="M16.05 14.189c.613 0 1.127.432 1.194 1.003l.857 7.367c.078.665-.479 1.246-1.194 1.246H7.129c-.715 0-1.272-.58-1.194-1.246l.857-7.367c.066-.57.58-1.003 1.194-1.003h8.063z" fill="#B9DCFF"></path>
    <path d="M20.952 1.32c2.062.089 1.952 2.995-.112 2.995H12.5c-4.78 0-8.653 3.625-8.653 8.096v23.688h-.641C1.789 36.099.64 35.025.64 33.7V3.715c0-1.324 1.148-2.398 2.564-2.398.116 0 17.653-.002 17.747.002z" fill="#E8F3FF"></path>
    <path d="M23.395 30.852V33.7c0 1.324-1.148 2.398-2.564 2.398H3.205C1.789 36.098.64 35.024.64 33.7v-2.848h22.754z" fill="#B9DCFF"></path>
    <path d="M3.846 30.852v2.857c0 1.953-3.205 2.053-3.205-.01v-2.847h3.205zM16.05 16.438c-3.883 0-7.056 2.734-7.466 6.257-.073.632-.643 1.11-1.322 1.11h-.133c-.715 0-1.272-.58-1.194-1.246l.857-7.367c.066-.57.58-1.003 1.194-1.003h8.063c.614 0 1.129.432 1.195 1.002.078.667-.48 1.247-1.194 1.247z" fill="#D1E7FF"></path>
    <path d="M20.83.717H3.206C1.438.717 0 2.062 0 3.716V33.7c0 1.654 1.438 3 3.205 3H20.83c1.767 0 3.204-1.345 3.204-2.999V3.716c0-1.654-1.437-2.999-3.204-2.999zm0 34.782H3.206c-1.06 0-1.923-.807-1.923-1.799V3.716c0-.993.863-1.8 1.923-1.8H20.83c1.06 0 1.922.807 1.922 1.8v26.536H4.406c-.353 0-.64.269-.64.6 0 .33.287.6.64.6h18.347V33.7c0 .992-.862 1.8-1.922 1.8zm-7.37-2.174c0 .332-.287.6-.641.6h-1.603c-.353 0-.64-.268-.64-.6 0-.33.287-.6.64-.6h1.603c.354 0 .64.27.64.6zm-6.331-8.92h9.778c1.096 0 1.95-.892 1.831-1.91l-.857-7.368c-.102-.876-.89-1.537-1.832-1.537h-.593v-1.11c0-1.774-1.542-3.217-3.438-3.217-1.896 0-3.438 1.443-3.438 3.217v1.11h-.594c-.942 0-1.73.66-1.832 1.537l-.857 7.367c-.119 1.02.736 1.911 1.832 1.911zm-.558-1.78l.858-7.368a.548.548 0 0 1 .557-.468h.593v.936c0 .331.287.6.641.6.354 0 .641-.269.641-.6V12.48c0-1.113.968-2.018 2.157-2.018s2.156.905 2.156 2.018v1.11h-2.772c-.354 0-.641.268-.641.6 0 .33.287.6.64.6h2.773v.935c0 .331.287.6.64.6.355 0 .642-.269.642-.6v-.936h.593c.287 0 .527.202.558.468l.857 7.367c.036.31-.222.582-.558.582H7.13c-.334 0-.594-.27-.558-.582z" fill="#007FFC"></path>
  </symbol>
</svg>