<svg width="0" height="0" class="hidden">
  <symbol viewBox="0 0 20 21" fill="none" xmlns="http://www.w3.org/2000/svg" id="dribble">
    <path d="M9.688.961C4.346.961 0 5.308 0 10.651c0 5.342 4.346 9.688 9.688 9.688 5.341 0 9.687-4.346 9.687-9.689 0-5.342-4.346-9.689-9.688-9.689zm6.405 4.468a8.237 8.237 0 0 1 1.868 5.156c-.273-.058-3.008-.613-5.762-.267a25.625 25.625 0 0 0-.727-1.625c3.06-1.25 4.446-3.028 4.62-3.264zm-.92-.957c-.15.212-1.395 1.887-4.337 2.99a44.172 44.172 0 0 0-3.088-4.845 8.252 8.252 0 0 1 7.425 1.855zM6.17 3.173c.218.3 1.696 2.35 3.067 4.787-3.87 1.028-7.28 1.013-7.65 1.008A8.306 8.306 0 0 1 6.17 3.173zm-4.757 7.49c0-.085.002-.169.004-.253.362.007 4.372.06 8.504-1.178.237.464.463.935.671 1.405-2.992.843-5.71 3.263-7.052 5.56a8.243 8.243 0 0 1-2.127-5.534zm3.195 6.529c.865-1.768 3.21-4.049 6.547-5.187 1.161 3.02 1.642 5.55 1.765 6.276a8.257 8.257 0 0 1-8.312-1.09zm9.703.331c-.085-.503-.525-2.926-1.608-5.9 2.593-.415 4.871.264 5.155.354a8.29 8.29 0 0 1-3.547 5.546z" fill="#0D0D0D"></path>
  </symbol>
</svg>