<svg width="0" height="0" class="hidden">
  <symbol viewBox="0 0 20 21"  xmlns="http://www.w3.org/2000/svg" id="github">
    <path d="M6.69 16.665c0 .08-.093.145-.21.145-.133.013-.226-.052-.226-.145 0-.08.093-.145.21-.145.12-.012.226.053.226.145zm-1.255-.181c-.028.08.053.173.174.197.105.04.226 0 .25-.08.024-.081-.053-.174-.174-.21-.104-.028-.221.012-.25.093zm1.783-.069c-.117.028-.198.105-.186.198.012.08.117.133.238.105.117-.029.198-.105.186-.186-.012-.076-.121-.129-.238-.117zM9.87.961C4.278.961 0 5.208 0 10.801c0 4.473 2.815 8.3 6.835 9.647.516.093.697-.226.697-.488 0-.25-.012-1.63-.012-2.476 0 0-2.822.605-3.415-1.202 0 0-.46-1.173-1.121-1.476 0 0-.924-.633.064-.621 0 0 1.004.08 1.557 1.04.883 1.557 2.363 1.11 2.94.843.092-.645.354-1.093.645-1.359-2.255-.25-4.529-.576-4.529-4.456 0-1.109.307-1.666.952-2.375-.105-.262-.448-1.343.105-2.739C5.56 4.877 7.5 6.23 7.5 6.23a9.472 9.472 0 0 1 2.532-.343c.86 0 1.726.116 2.533.342 0 0 1.939-1.355 2.782-1.089.552 1.4.21 2.477.105 2.739.645.714 1.04 1.27 1.04 2.375 0 3.892-2.375 4.202-4.63 4.456.372.319.686.924.686 1.872 0 1.359-.012 3.04-.012 3.371 0 .262.186.58.698.488C17.266 19.1 20 15.274 20 10.8 20 5.209 15.464.962 9.871.962zm-5.952 13.91c-.052.04-.04.133.029.21.064.064.157.092.21.04.052-.04.04-.133-.029-.21-.064-.065-.157-.093-.21-.04zm-.435-.327c-.028.052.012.117.093.157.064.04.145.028.173-.028.028-.052-.012-.117-.093-.157-.08-.024-.145-.012-.173.028zM4.79 15.98c-.064.052-.04.173.053.25.092.092.21.104.262.04.052-.052.028-.173-.053-.25-.088-.093-.21-.105-.262-.04zm-.46-.593c-.064.04-.064.145 0 .238.065.092.174.133.226.092.065-.052.065-.157 0-.25-.056-.092-.16-.133-.225-.08z" ></path>
  </symbol>
</svg>