<svg width="0" height="0" class="hidden">
  <symbol viewBox="0 0 21 21" xmlns="http://www.w3.org/2000/svg" id="instagram">
    <path d="M10.008 5.836c-2.84 0-5.13 2.29-5.13 5.13s2.29 5.13 5.13 5.13 5.13-2.29 5.13-5.13-2.29-5.13-5.13-5.13zm0 8.465a3.341 3.341 0 0 1-3.335-3.335 3.338 3.338 0 0 1 3.335-3.335 3.338 3.338 0 0 1 3.335 3.335 3.34 3.34 0 0 1-3.335 3.335zm6.536-8.675c0 .665-.536 1.197-1.197 1.197a1.197 1.197 0 1 1 1.196-1.197zm3.397 1.215c-.076-1.603-.442-3.023-1.616-4.193-1.17-1.17-2.59-1.536-4.192-1.616-1.652-.094-6.603-.094-8.255 0-1.598.076-3.018.442-4.192 1.612C.512 3.814.151 5.234.07 6.836c-.093 1.652-.093 6.604 0 8.256.076 1.603.442 3.022 1.616 4.192 1.174 1.17 2.59 1.536 4.192 1.617 1.652.093 6.603.093 8.255 0 1.603-.076 3.022-.442 4.192-1.617 1.17-1.17 1.535-2.59 1.616-4.192.094-1.652.094-6.6 0-8.251zm-2.134 10.023a3.377 3.377 0 0 1-1.902 1.902c-1.317.523-4.442.402-5.897.402-1.456 0-4.585.116-5.898-.402a3.377 3.377 0 0 1-1.901-1.902c-.523-1.317-.402-4.442-.402-5.898 0-1.455-.116-4.585.402-5.898A3.376 3.376 0 0 1 4.11 3.166c1.317-.522 4.442-.402 5.898-.402 1.455 0 4.585-.116 5.897.402a3.377 3.377 0 0 1 1.902 1.902c.522 1.317.402 4.443.402 5.898 0 1.456.12 4.586-.402 5.898z"></path>
  </symbol>
</svg>