<svg width="0" height="0" class="hidden">
  <symbol viewBox="0 0 39 36" fill="none" xmlns="http://www.w3.org/2000/svg" id="mic">
    <path d="M33.027 17.068c.768 1.245-.153 2.809-1.689 2.864A42.311 42.311 0 0 0 14.62 24.03l-1.783.962c0 .008-.024-.04 4.316 7.023.398.646.162 1.471-.528 1.844l-1.406.76c-.69.372-1.573.151-1.971-.495l-4.33-7.015-.702.38c-1.38.745-3.145.303-3.943-.989l-3.246-5.26c-.796-1.292-.324-2.944 1.057-3.69l6.404-3.46c4.894-2.961 9.041-6.883 12.15-11.497.82-1.217 2.727-1.182 3.496.064l2.777 4.502c1.596-.862 3.638-.35 4.56 1.143.92 1.493.373 3.403-1.223 4.265l2.779 4.502z" fill="#D1E7FF"></path>
    <path d="M31.47 8.3c.921 1.493.374 3.402-1.222 4.264l-3.337-5.407c1.596-.862 3.638-.35 4.559 1.143z" fill="#D1E7FF"></path>
    <path d="M24.134 2.656a1.789 1.789 0 0 1-.066 1.99c-3.422 4.825-8.009 9.185-13.618 12.58L2.947 21.28a3.272 3.272 0 0 0-1.209 1.11l-.711-1.152C.23 19.947.703 18.295 2.084 17.55l6.404-3.46c4.894-2.961 9.041-6.883 12.15-11.497.82-1.217 2.727-1.181 3.496.064z" fill="#E8F3FF"></path>
    <path d="M8.488 14.09l6.132 9.939c-1.229.663-5.177 2.795-6.404 3.46-1.38.744-3.145.302-3.943-.99l-3.246-5.26c-.796-1.292-.324-2.944 1.057-3.69l6.404-3.46z" fill="#B9DCFF"></path>
    <path d="M10.43 17.238c-8.15 4.401-7.61 4.095-7.872 4.286-.495.36-1.218.223-1.532-.286-.796-1.291-.323-2.943 1.057-3.689l6.404-3.46 1.942 3.149z" fill="#D1E7FF"></path>
    <path d="M14.005 26.89c-2.28 1.235-.603.327-3.915 2.115l-1.172-1.897 3.92-2.116 1.167 1.898zM31.27 11.707a3.22 3.22 0 0 1-1.022.857l-3.337-5.407a3.471 3.471 0 0 1 1.305-.4l3.054 4.95z" fill="#B9DCFF"></path>
    <path d="M31.098 12.743c2.501-1.912 1.637-5.692-1.489-6.476a4.204 4.204 0 0 0-2.437.114L24.69 2.356C23.678.718 21.17.675 20.095 2.272 17.04 6.805 12.971 10.66 8.14 13.587a.578.578 0 0 0-.214.79l4.167 6.754a.666.666 0 0 0 .876.22.58.58 0 0 0 .234-.82L9.344 14.28c4.607-2.882 8.688-6.697 11.836-11.368.563-.836 1.871-.81 2.398.044l8.893 14.412c.528.855-.105 1.927-1.158 1.966a42.976 42.976 0 0 0-16.985 4.16L7.895 26.97c-1.072.579-2.448.234-3.066-.769L1.582 20.94c-.619-1.003-.25-2.29.822-2.87l3.907-2.11a.58.58 0 0 0 .235-.82.665.665 0 0 0-.876-.22l-3.907 2.112c-1.684.91-2.264 2.931-1.291 4.507L3.718 26.8c.973 1.575 3.134 2.117 4.818 1.207l.148-.08 4.008 6.496c.576.933 1.85 1.253 2.847.714l1.406-.76c.997-.538 1.339-1.73.763-2.663l-2.841-4.604a.666.666 0 0 0-.876-.219.58.58 0 0 0-.234.82l2.84 4.603c.222.36.09.818-.293 1.025l-1.406.76c-.384.207-.874.084-1.095-.275l-4.009-6.496 5.132-2.773a41.62 41.62 0 0 1 16.437-4.023c2.02-.074 3.228-2.129 2.218-3.764l-2.483-4.025zM30.915 8.6c.632 1.025.405 2.298-.47 3.083l-2.62-4.244c1.149-.315 2.447.119 3.09 1.16zm6.269-2.666l-1.659.895a.665.665 0 0 1-.875-.219.579.579 0 0 1 .234-.82l1.659-.895a.665.665 0 0 1 .875.22.58.58 0 0 1-.234.819zm-7.132-3.418l.404-1.412c.092-.32.443-.51.785-.425.342.086.545.415.453.735l-.404 1.412c-.092.32-.442.51-.785.424-.342-.086-.545-.415-.453-.734zm8.383 9.821a.636.636 0 0 1-.62.445c-.115 0-.034.012-1.675-.4-.342-.085-.544-.414-.453-.734.092-.32.443-.51.785-.424l1.51.379c.341.085.544.414.453.734z" fill="#007FFC"></path>
  </symbol>
</svg>