<svg width="0" height="0" class="hidden">
  <symbol viewBox="0 0 39 37" fill="none" xmlns="http://www.w3.org/2000/svg" id="shop">
    <path d="M35.888 13.98v19.663c0 1.325-1.148 2.398-2.564 2.398H5.13c-1.415 0-2.563-1.073-2.563-2.398 0-18.59-.002-15.107.006-19.663h33.316z" fill="#D1E7FF"></path>
    <path d="M35.888 13.98v4.54c0 .983-.843 1.797-1.893 1.801H4.458c-1.05-.004-1.892-.818-1.892-1.8 0-1.311-.001-.406.006-4.542h33.316z" fill="#B9DCFF"></path>
    <path d="M25.715 25.324v10.717H12.739V25.324c0-1.324 1.148-2.398 2.563-2.398h7.85c1.415 0 2.563 1.074 2.563 2.398z" fill="#E8F3FF"></path>
    <path d="M37.81 13.98c0 2.399-2.08 4.346-4.646 4.346s-4.646-1.946-4.646-4.347c0 2.4-2.08 4.347-4.646 4.347-2.565 0-4.645-1.946-4.645-4.347 0 2.4-2.08 4.347-4.646 4.347s-4.646-1.946-4.646-4.347c-.004 2.385-2.102 4.347-4.646 4.347-2.54 0-4.641-1.96-4.645-4.347 0-3.778-.012-3.545.028-3.719.038-.17-.228.433 3.802-8.27.203-.439.666-.723 1.176-.723h27.153c.51 0 .973.284 1.176.723 4.034 8.71 3.764 8.1 3.803 8.27.039.174.028-.063.028 3.72z" fill="#B9DCFF"></path>
    <path d="M37.81 13.98c0 2.399-2.08 4.346-4.646 4.346s-4.646-1.946-4.646-4.347c0 2.4-2.08 4.347-4.645 4.347-2.566 0-4.646-1.946-4.646-4.347 0 2.4-2.08 4.347-4.646 4.347S9.935 16.38 9.935 13.98c-.004 2.385-2.102 4.347-4.646 4.347-2.54 0-4.641-1.96-4.645-4.347-.007-3.798-.006-3.57.028-3.718h37.11c.039.173.028-.063.028 3.718z" fill="#A2D0FF"></path>
    <path d="M32.458 4.47c-8.137-1.047-16.348.297-22.99 4.98a4.51 4.51 0 0 1-2.594.81H.672c.038-.17-.228.433 3.802-8.27.204-.439.666-.723 1.176-.723h27.154c.51 0 .972.284 1.175.722l.18.386c.5 1.08-.455 2.256-1.701 2.096z" fill="#D1E7FF"></path>
    <path d="M36.528 20.978v12.665c0 1.653-1.437 2.998-3.204 2.998H5.13c-1.767 0-3.204-1.345-3.204-2.998V20.978c0-.332.287-.6.641-.6.354 0 .64.268.64.6v12.665c0 .992.863 1.799 1.923 1.799h6.969V25.324c0-1.652 1.437-2.997 3.204-2.997h7.85c1.766 0 3.203 1.345 3.203 2.997v7.72c0 .33-.286.6-.64.6-.354 0-.641-.27-.641-.6v-7.72c0-.991-.863-1.798-1.922-1.798h-7.85c-1.06 0-1.923.807-1.923 1.798v10.118h5.207v-9.443c0-.331.287-.6.64-.6.355 0 .642.269.642.6v9.443h13.456c1.06 0 1.923-.807 1.923-1.799V20.978c0-.332.286-.6.64-.6.354 0 .641.268.641.6zM4.168 10.26c0 .332.287.6.64.6 34.865 0 33.137.058 33.392-.124a.59.59 0 0 0 .244-.393c.035-.24.265.352-4.212-9.314a.644.644 0 0 0-.587-.362H4.809a.644.644 0 0 0-.588.362L.056 10.022c-.074.16-.053-.093-.053 3.958.004 2.727 2.376 4.946 5.286 4.946 2.001 0 3.747-1.049 4.645-2.59 2.004 3.447 7.284 3.45 9.293.002 2.006 3.445 7.284 3.446 9.291 0 .897 1.54 2.643 2.588 4.646 2.588 2.915 0 5.286-2.22 5.286-4.947 0-.33-.286-.6-.64-.6-.354 0-.641.27-.641.6 0 2.066-1.797 3.747-4.005 3.747s-4.005-1.68-4.005-3.747c0-.33-.287-.6-.64-.6-.355 0-.642.27-.642.6 0 2.066-1.796 3.747-4.005 3.747-2.208 0-4.005-1.68-4.005-3.747 0-.33-.287-.6-.64-.6-.354 0-.641.27-.641.6 0 2.066-1.797 3.747-4.005 3.747-2.16 0-4.005-1.623-4.005-3.777 0-.33-.287-.6-.641-.6-.354 0-.64.27-.64.6 0 2.136-1.835 3.777-4.006 3.777-2.205 0-4.001-1.681-4.005-3.747v-3.594L5.23 1.867h27.995l3.61 7.794H4.809c-.354 0-.641.268-.641.6z" fill="#007FFC"></path>
  </symbol>
</svg>