<svg width="0" height="0" class="hidden">
  <symbol viewBox="0 0 20 18" xmlns="http://www.w3.org/2000/svg" id="twitter">
    <path d="M17.944 5.01c.013.178.013.356.013.534 0 5.42-4.125 11.664-11.663 11.664-2.322 0-4.48-.673-6.294-1.84.33.037.647.05.99.05a8.21 8.21 0 0 0 5.089-1.751 4.106 4.106 0 0 1-3.833-2.843c.254.038.508.063.774.063.368 0 .736-.05 1.079-.14A4.1 4.1 0 0 1 .812 6.725v-.05c.546.304 1.18.494 1.853.52A4.097 4.097 0 0 1 .838 3.78c0-.762.203-1.46.558-2.07A11.65 11.65 0 0 0 9.848 6a4.628 4.628 0 0 1-.102-.939c0-2.259 1.828-4.1 4.1-4.1 1.18 0 2.245.496 2.994 1.296a8.07 8.07 0 0 0 2.602-.99 4.088 4.088 0 0 1-1.802 2.259A8.216 8.216 0 0 0 20 2.89a8.812 8.812 0 0 1-2.056 2.12z"></path>
  </symbol>
</svg>